<svg xmlns="http://www.w3.org/2000/svg" xmlns:xlink="http://www.w3.org/1999/xlink" version="1.1" x="0px" y="0px" viewBox="0 0 512 640" style="enable-background:new 0 0 512 512;" xml:space="preserve"><g><g><g><path d="M363,500.1H150c-24.9,0-45.2-20.3-45.2-45.1V58c0-24.9,20.3-45.2,45.2-45.2h213c24.9,0,45.1,20.3,45.1,45.2V455     C408.1,479.9,387.9,500.1,363,500.1z M150,20.8c-20.5,0-37.2,16.7-37.2,37.2V455c0,20.5,16.7,37.1,37.2,37.1h213     c20.5,0,37.1-16.7,37.1-37.1V58c0-20.5-16.7-37.2-37.1-37.2C363,20.8,150,20.8,150,20.8z"/></g><g><path d="M404.1,90.4H108.8c-2.2,0-4-1.8-4-4V58c0-24.9,20.3-45.2,45.2-45.2h213c24.9,0,45.1,20.3,45.1,45.2v28.3     C408.1,88.6,406.3,90.4,404.1,90.4z M112.8,82.4h287.3V58c0-20.5-16.6-37.2-37.1-37.2H150c-20.5,0-37.2,16.7-37.2,37.2     L112.8,82.4L112.8,82.4z"/></g><g><path d="M363,500.1H150c-24.9,0-45.2-20.3-45.2-45.1v-28.4c0-2.2,1.8-4,4-4h295.3c2.2,0,4,1.8,4,4V455     C408.1,479.9,387.9,500.1,363,500.1z M112.8,430.6V455c0,20.5,16.7,37.1,37.2,37.1h213c20.4,0,37.1-16.7,37.1-37.1v-24.4H112.8z"/></g><g><path d="M295.8,55.6h-15.2c-2.2,0-4-1.8-4-4s1.8-4,4-4h15.2c2.2,0,4,1.8,4,4S298,55.6,295.8,55.6z M269.7,55.6h-52.5     c-2.2,0-4-1.8-4-4s1.8-4,4-4h52.5c2.2,0,4,1.8,4,4S271.9,55.6,269.7,55.6z"/></g><g><path d="M289,474.5h-65c-2.2,0-4-1.8-4-4v-18.3c0-2.2,1.8-4,4-4h65c2.2,0,4,1.8,4,4v18.3C293,472.7,291.2,474.5,289,474.5z      M227.9,466.5h57v-10.3h-57V466.5z"/></g><g><path d="M307.4,307.3c-0.3,0-0.7,0-1-0.1c-1.1-0.3-2-1-2.5-2.1l-8.2-16.3c-0.9-1.8-0.3-3.9,1.3-5.1c19-13.2,30.3-34.9,30.3-58     c0-39-31.7-70.8-70.7-70.8s-70.7,31.7-70.7,70.8c0,23.1,11.3,44.8,30.2,58c1.6,1.1,2.2,3.3,1.3,5.1l-8.1,16.3     c-0.5,1-1.4,1.8-2.5,2.1c-1.1,0.3-2.3,0.1-3.2-0.5c-27.4-18-43.7-48.2-43.7-80.9c0-53.4,43.4-96.8,96.8-96.8s96.8,43.4,96.8,96.8     c0,32.7-16.3,63-43.7,80.9C308.9,307.1,308.1,307.3,307.4,307.3z M304.3,288.3l4.6,9.2c22.9-16.7,36.4-43.2,36.4-71.7     c0-49-39.8-88.8-88.8-88.8s-88.8,39.8-88.8,88.8c0,28.5,13.5,55,36.4,71.7l4.6-9.1c-19.4-14.9-30.9-38-30.9-62.5     c0-43.4,35.3-78.8,78.7-78.8c43.4,0,78.7,35.3,78.7,78.8C335.2,250.3,323.7,273.4,304.3,288.3z"/></g><g><path d="M223.6,271.2c-0.9,0-1.8-0.3-2.5-0.9c-13.7-10.9-21.5-27.1-21.5-44.6c0-31.4,25.5-56.9,56.8-56.9     c31.3,0,56.8,25.5,56.8,56.9c0,17.5-7.9,33.7-21.6,44.6c-0.9,0.7-2.2,1-3.4,0.8c-1.2-0.3-2.2-1-2.7-2.1l-29.2-58.5L227.2,269     c-0.5,1.1-1.5,1.9-2.7,2.1C224.2,271.2,223.9,271.2,223.6,271.2z M256.5,197.6L256.5,197.6c1.5,0,2.9,0.9,3.6,2.2l30.4,61     c9.5-9.2,14.8-21.7,14.8-35c0-26.9-21.9-48.9-48.8-48.9s-48.8,21.9-48.8,48.9c0,13.4,5.3,25.9,14.7,35l30.5-61     C253.6,198.4,255,197.6,256.5,197.6z"/></g><g><path d="M200.1,354.1c-1,0-2-0.4-2.8-1.1c-1.3-1.2-1.6-3.1-0.8-4.7l56.4-112.9c0.7-1.4,2.1-2.2,3.6-2.2s2.9,0.9,3.6,2.2     l56.4,112.9c0.8,1.6,0.5,3.5-0.8,4.7c-1.3,1.2-3.2,1.5-4.7,0.6l-54.5-30.4L202,353.6C201.4,353.9,200.7,354.1,200.1,354.1z      M256.5,314.6c0.7,0,1.3,0.2,2,0.5l45.1,25.2l-47-94.1l-47,94.1l45.1-25.2C255.1,314.7,255.8,314.6,256.5,314.6z"/></g><g><path d="M284.2,410.8h-55.5c-2.2,0-4-1.8-4-4s1.8-4,4-4h55.5c2.2,0,4,1.8,4,4S286.4,410.8,284.2,410.8z M284.2,392.1h-55.5     c-2.2,0-4-1.8-4-4s1.8-4,4-4h55.5c2.2,0,4,1.8,4,4S286.4,392.1,284.2,392.1z M284.2,373.5h-55.5c-2.2,0-4-1.8-4-4s1.8-4,4-4h55.5     c2.2,0,4,1.8,4,4S286.4,373.5,284.2,373.5z"/></g></g></g><text x="0" y="527" fill="#000000" font-size="5px" font-weight="bold" font-family="'Helvetica Neue', Helvetica, Arial-Unicode, Arial, Sans-serif">Created by ibrandify</text><text x="0" y="532" fill="#000000" font-size="5px" font-weight="bold" font-family="'Helvetica Neue', Helvetica, Arial-Unicode, Arial, Sans-serif">from the Noun Project</text></svg>